<?xml version="1.0" encoding="UTF-8" standalone="no"?>
<svg
   xmlns:dc="http://purl.org/dc/elements/1.1/"
   xmlns:cc="http://creativecommons.org/ns#"
   xmlns:rdf="http://www.w3.org/1999/02/22-rdf-syntax-ns#"
   xmlns:svg="http://www.w3.org/2000/svg"
   xmlns="http://www.w3.org/2000/svg"
   xmlns:sodipodi="http://sodipodi.sourceforge.net/DTD/sodipodi-0.dtd"
   xmlns:inkscape="http://www.inkscape.org/namespaces/inkscape"
   version="1.1"
   id="svg2"
   xml:space="preserve"
   width="1365.3333"
   height="960"
   viewBox="0 0 1365.3333 960"
   sodipodi:docname="SOURCE FILE.ai"><metadata
     id="metadata8"><rdf:RDF><cc:Work
         rdf:about=""><dc:format>image/svg+xml</dc:format><dc:type
           rdf:resource="http://purl.org/dc/dcmitype/StillImage" /></cc:Work></rdf:RDF></metadata><defs
     id="defs6"><clipPath
       clipPathUnits="userSpaceOnUse"
       id="clipPath32"><path
         d="M 0,720 H 1024 V 0 H 0 Z"
         id="path30" /></clipPath></defs><sodipodi:namedview
     pagecolor="#ffffff"
     bordercolor="#666666"
     borderopacity="1"
     objecttolerance="10"
     gridtolerance="10"
     guidetolerance="10"
     inkscape:pageopacity="0"
     inkscape:pageshadow="2"
     inkscape:window-width="640"
     inkscape:window-height="480"
     id="namedview4" /><g
     id="g10"
     inkscape:groupmode="layer"
     inkscape:label="SOURCE FILE"
     transform="matrix(1.3333333,0,0,-1.3333333,0,960)"><path
       d="M 0,0 H 1024 V 720 H 0 Z"
       style="fill:#ffffff;fill-opacity:1;fill-rule:nonzero;stroke:none"
       id="path12" /><g
       id="g14"
       transform="translate(428.6802,288.1445)"><path
         d="M 0,0 106.315,199.665 87.258,237.524 -39.056,-0.015 Z"
         style="fill:#231f20;fill-opacity:1;fill-rule:nonzero;stroke:none"
         id="path16" /></g><g
       id="g18"
       transform="translate(579.3037,322.7207)"><path
         d="M 0,0 -46.26,91.06 H -8.011 L 56.901,-34.645 H -53.354 L -70.76,0 Z"
         style="fill:#414141;fill-opacity:1;fill-rule:nonzero;stroke:none"
         id="path20" /></g><g
       id="g22"
       transform="translate(359.1333,231.8105)"><path
         d="M 0,0 -6.124,14.901 -11.751,0 Z m -19.881,-9.206 h 2.329 l 12.161,31.31 h 2.502 l 13.002,-31.31 h 2.199 v -1.682 H 0.56 v 1.682 h 3.235 l -3.106,7.524 h -13.088 l -2.846,-7.524 h 3.882 v -1.682 h -8.518 z"
         style="fill:#231f20;fill-opacity:1;fill-rule:nonzero;stroke:none"
         id="path24" /></g><g
       id="g26"><g
         id="g28"
         clip-path="url(#clipPath32)"><g
           id="g34"
           transform="translate(396.5991,237.6777)"><path
             d="m 0,0 c 2.618,0 4.457,0.834 5.521,2.505 0.775,1.212 1.164,2.931 1.164,5.157 0,2.226 -0.453,3.867 -1.358,4.922 -1.121,1.315 -3.026,1.972 -5.715,1.972 H -4.959 V 0 Z m 0.388,16.237 c 8.266,0 12.399,-2.758 12.399,-8.271 0,-2.499 -0.762,-4.493 -2.285,-5.98 -1.524,-1.484 -3.565,-2.435 -6.124,-2.851 3.378,-0.559 5.693,-2.297 6.942,-5.214 0.505,-1.181 0.946,-2.479 1.327,-3.894 0.381,-1.419 0.722,-2.418 1.025,-3.008 0.661,-1.322 1.638,-1.983 2.932,-1.983 h 0.863 l 0.043,-1.791 h -3.041 c -2.818,0 -4.715,0.381 -5.692,1.144 -0.992,0.776 -1.747,2.306 -2.264,4.592 -0.474,2.086 -0.863,3.507 -1.165,4.269 -0.632,1.639 -1.451,2.926 -2.458,3.859 -1.006,0.938 -2.307,1.405 -3.903,1.405 h -3.946 v -13.478 h 5.046 v -1.791 h -14.339 v 1.791 h 3.472 l 0.022,29.52 h -3.494 v 1.681 z"
             style="fill:#231f20;fill-opacity:1;fill-rule:nonzero;stroke:none"
             id="path36" /></g><g
           id="g38"
           transform="translate(431.9551,222.6045)"><path
             d="M 0,0 H 4.29 L 4.312,29.52 H 0.301 c -2.373,0 -4.025,-0.808 -4.96,-2.424 -0.719,-1.241 -1.143,-3.295 -1.272,-6.166 H -7.613 V 31.311 H 22.014 V 20.93 h -1.682 c -0.129,2.842 -0.56,4.896 -1.293,6.166 -0.936,1.616 -2.581,2.424 -4.938,2.424 h -3.99 V 0 h 4.313 V -1.682 H 0 Z"
             style="fill:#231f20;fill-opacity:1;fill-rule:nonzero;stroke:none"
             id="path40" /></g><g
           id="g42"
           transform="translate(466.0786,222.6279)"><path
             d="M 0,0 H 4.614 L 4.637,29.625 H 1.014 v 1.662 H 14.275 V 29.625 H 10.438 V 0 h 6.597 c 3.78,0 6.073,1.742 6.879,5.229 0.23,1.005 0.379,2.037 0.452,3.1 h 1.682 V -1.705 H 0 Z"
             style="fill:#231f20;fill-opacity:1;fill-rule:nonzero;stroke:none"
             id="path44" /></g><g
           id="g46"
           transform="translate(506.8018,252.2334)"><path
             d="M 0,0 H -2.954 V 1.682 H 8.948 V 0 H 5.802 v -19.715 c 0,-5.146 1.465,-8.194 4.395,-9.143 0.98,-0.312 1.931,-0.467 2.86,-0.467 0.928,0 1.73,0.043 2.415,0.126 0.681,0.083 1.361,0.25 2.037,0.487 1.507,0.567 2.751,1.59 3.719,3.063 0.968,1.476 1.456,3.582 1.456,6.318 V 0 h -3.365 v 1.682 h 8.624 V 0 h -3.145 v -19.646 c 0,-3.931 -1.037,-6.863 -3.106,-8.791 -2.069,-1.931 -4.882,-2.893 -8.429,-2.893 -6.688,0 -10.885,2.495 -12.595,7.492 -0.459,1.332 -0.691,2.942 -0.691,4.83 z"
             style="fill:#231f20;fill-opacity:1;fill-rule:nonzero;stroke:none"
             id="path48" /></g><g
           id="g50"
           transform="translate(545.2373,222.6045)"><path
             d="M 0,0 H 3.668 L 13.759,13.521 3.106,29.629 H -0.04 v 1.682 H 13.652 V 29.629 H 9.661 l 7.894,-11.776 8.667,11.776 h -3.645 v 1.682 h 9.701 V 29.629 H 28.594 L 18.675,16.174 29.54,0 h 2.937 V -1.682 H 18.801 V 0 h 3.928 L 14.882,11.816 6.123,0 h 3.951 V -1.682 H 0 Z"
             style="fill:#231f20;fill-opacity:1;fill-rule:nonzero;stroke:none"
             id="path52" /></g><g
           id="g54"
           transform="translate(589.6523,222.7285)"><path
             d="M 0,0 H 3.754 V 29.625 H 0 v 1.682 H 9.768 L 27.233,5.326 v 24.299 h -4.182 v 1.682 H 33.293 V 29.625 H 29.345 V -1.683 H 25.334 L 5.865,26.932 V 0 h 4.378 V -1.683 L 0,-1.683 Z"
             style="fill:#414042;fill-opacity:1;fill-rule:nonzero;stroke:none"
             id="path56" /></g><g
           id="g58"
           transform="translate(625.5957,222.7285)"><path
             d="m 0,0 h 4.292 l 0.02,29.625 h -4.333 v 1.682 h 27.019 v -9.312 h -1.685 c -0.157,2.702 -0.595,4.562 -1.312,5.584 -0.951,1.364 -2.728,2.046 -5.326,2.046 H 10.113 V 15.46 h 4.657 c 1.209,0 2.174,0.212 2.899,0.633 0.727,0.421 1.161,1.149 1.307,2.175 0.028,0.303 0.054,0.647 0.074,1.031 0.023,0.384 0.049,0.745 0.077,1.077 h 1.769 V 9.1 h -1.769 c -0.028,0.314 -0.054,0.678 -0.077,1.096 -0.02,0.416 -0.046,0.763 -0.074,1.037 -0.261,1.697 -1.66,2.544 -4.206,2.544 H 10.113 V 0 h 6.986 V -1.683 L 0,-1.683 Z"
             style="fill:#414042;fill-opacity:1;fill-rule:nonzero;stroke:none"
             id="path60" /></g><g
           id="g62"
           transform="translate(663.2666,222.7285)"><path
             d="M 0,0 H 4.289 L 4.312,29.519 H 0.304 c -2.375,0 -4.029,-0.811 -4.96,-2.427 C -5.378,25.852 -5.8,23.797 -5.929,20.93 H -7.613 V 31.307 H 22.016 V 20.93 h -1.683 c -0.129,2.839 -0.562,4.893 -1.292,6.162 -0.937,1.616 -2.584,2.427 -4.939,2.427 H 10.113 V 0 h 4.313 V -1.683 H 0 Z"
             style="fill:#414042;fill-opacity:1;fill-rule:nonzero;stroke:none"
             id="path64" /></g><g
           id="g66"
           transform="translate(395.6641,208.0781)"><path
             d="m 0,0 v -13.257 h -1.403 l -6.86,10.685 V -13.257 H -9.666 V 0 h 1.403 l 6.86,-10.644 0,10.644 z"
             style="fill:#231f20;fill-opacity:1;fill-rule:nonzero;stroke:none"
             id="path68" /></g><g
           id="g70"
           transform="translate(400.1392,206.8125)"><path
             d="M 0,0 V -4.65 H 5.687 V -5.92 H 0 v -6.071 H -1.403 V 1.266 H 6.648 V 0 Z"
             style="fill:#231f20;fill-opacity:1;fill-rule:nonzero;stroke:none"
             id="path72" /></g><g
           id="g74"
           transform="translate(416.665,206.8125)"><path
             d="M 0,0 H -3.786 V -11.991 H -5.17 V 0 H -8.953 V 1.266 H 0 Z"
             style="fill:#231f20;fill-opacity:1;fill-rule:nonzero;stroke:none"
             id="path76" /></g><g
           id="g78"
           transform="translate(429.3833,196.7041)"><path
             d="M 0,0 C 0.486,0.424 0.729,1.037 0.729,1.845 0.729,2.639 0.49,3.24 0.01,3.653 -0.471,4.06 -1.153,4.267 -2.036,4.267 h -3.422 v -4.9 h 3.401 c 0.885,0 1.57,0.209 2.057,0.633 M -5.458,10.125 V 5.516 h 3.305 c 0.832,0 1.487,0.185 1.961,0.567 0.474,0.375 0.711,0.951 0.711,1.719 0,0.767 -0.229,1.349 -0.692,1.739 -0.46,0.39 -1.115,0.584 -1.958,0.584 z M 1.567,3.765 C 1.946,3.218 2.132,2.544 2.132,1.748 2.132,0.607 1.774,-0.284 1.056,-0.92 0.341,-1.564 -0.64,-1.883 -1.882,-1.883 H -6.86 v 13.257 h 4.861 c 1.244,0 2.208,-0.306 2.893,-0.91 C 1.579,9.854 1.921,8.991 1.921,7.879 1.921,7.2 1.744,6.59 1.384,6.054 1.026,5.516 0.526,5.146 -0.115,4.939 0.626,4.707 1.188,4.317 1.567,3.765"
             style="fill:#231f20;fill-opacity:1;fill-rule:nonzero;stroke:none"
             id="path80" /></g><g
           id="g82"
           transform="translate(440.7378,199.2021)"><path
             d="M 0,0 -2.421,6.917 -4.822,0 Z m 0.406,-1.191 h -5.632 l -1.113,-3.19 h -1.48 l 4.823,13.257 h 1.171 L 2.997,-4.381 H 1.52 Z"
             style="fill:#231f20;fill-opacity:1;fill-rule:nonzero;stroke:none"
             id="path84" /></g><g
           id="g86"
           transform="translate(446.2334,195.8877)"><path
             d="m 0,0 c -0.844,0.816 -1.267,2.097 -1.267,3.854 v 3.44 c 0,1.754 0.423,3.037 1.267,3.852 0.847,0.813 1.979,1.216 3.401,1.216 0.898,0 1.689,-0.166 2.373,-0.498 C 6.459,11.532 6.986,11.057 7.36,10.443 7.73,9.827 7.916,9.116 7.916,8.312 V 8.251 H 6.512 v 0.061 c 0,0.856 -0.276,1.536 -0.833,2.034 -0.556,0.501 -1.317,0.751 -2.278,0.751 -1.063,0 -1.873,-0.301 -2.43,-0.906 C 0.412,9.593 0.136,8.606 0.136,7.234 V 3.776 c 0,-2.472 1.094,-3.708 3.286,-3.708 0.959,0 1.714,0.244 2.265,0.737 0.552,0.496 0.825,1.172 0.825,2.028 V 2.911 H 7.877 V 2.833 C 7.877,1.593 7.475,0.604 6.668,-0.123 5.86,-0.854 4.773,-1.221 3.401,-1.221 1.979,-1.221 0.847,-0.813 0,0"
             style="fill:#231f20;fill-opacity:1;fill-rule:nonzero;stroke:none"
             id="path88" /></g><g
           id="g90"
           transform="translate(461.0659,201.8154)"><path
             d="m 0,0 -2.709,-3.344 v -3.65 H -4.111 V 6.263 h 1.402 v -7.721 l 6.13,7.721 h 1.67 L 0.903,1.095 5.687,-6.994 H 4.054 Z"
             style="fill:#231f20;fill-opacity:1;fill-rule:nonzero;stroke:none"
             id="path92" /></g><g
           id="g94"
           transform="translate(469.8447,206.8125)"><path
             d="m 0,0 v -4.613 h 5.687 v -1.27 H 0 v -4.842 h 6.648 v -1.266 h -8.05 V 1.266 h 8.05 V 0 Z"
             style="fill:#231f20;fill-opacity:1;fill-rule:nonzero;stroke:none"
             id="path96" /></g><g
           id="g98"
           transform="translate(483.5083,196.0879)"><path
             d="M 0,0 C 2.099,0 3.15,1.244 3.15,3.73 V 6.859 C 3.15,8.206 2.878,9.186 2.333,9.799 1.79,10.415 1.012,10.725 0,10.725 H -3.131 V 0 Z m -4.554,11.99 h 4.535 c 1.407,0 2.526,-0.406 3.352,-1.219 C 4.159,9.959 4.574,8.673 4.574,6.92 V 3.805 C 4.574,2.052 4.159,0.768 3.333,-0.046 2.507,-0.859 1.388,-1.267 -0.019,-1.267 h -4.535 z"
             style="fill:#231f20;fill-opacity:1;fill-rule:nonzero;stroke:none"
             id="path100" /></g><g
           id="g102"
           transform="translate(501.9111,196.7041)"><path
             d="M 0,0 C 0.487,0.424 0.73,1.037 0.73,1.845 0.73,2.639 0.493,3.24 0.012,3.653 -0.47,4.06 -1.152,4.267 -2.034,4.267 h -3.421 v -4.9 h 3.398 c 0.888,0 1.57,0.209 2.057,0.633 M -5.455,10.125 V 5.516 h 3.303 c 0.834,0 1.487,0.185 1.963,0.567 0.473,0.375 0.71,0.951 0.71,1.719 0,0.767 -0.229,1.349 -0.693,1.739 -0.458,0.39 -1.114,0.584 -1.96,0.584 z M 1.57,3.765 C 1.945,3.218 2.135,2.544 2.135,1.748 2.135,0.607 1.776,-0.284 1.057,-0.92 0.344,-1.564 -0.639,-1.883 -1.879,-1.883 h -4.98 v 13.257 h 4.862 c 1.244,0 2.209,-0.306 2.891,-0.91 C 1.582,9.854 1.922,8.991 1.922,7.879 1.922,7.2 1.745,6.59 1.387,6.054 1.026,5.516 0.527,5.146 -0.115,4.939 0.627,4.707 1.189,4.317 1.57,3.765"
             style="fill:#231f20;fill-opacity:1;fill-rule:nonzero;stroke:none"
             id="path104" /></g><g
           id="g106"
           transform="translate(510.6152,200.374)"><path
             d="M 0,0 V -5.553 H -1.401 V 0.021 L -5.36,7.704 h 1.521 L -0.71,1.347 2.441,7.704 H 3.96 Z"
             style="fill:#231f20;fill-opacity:1;fill-rule:nonzero;stroke:none"
             id="path108" /></g><g
           id="g110"
           transform="translate(520.4141,208.0781)"><path
             d="m 0,0 h 1.404 v -11.99 h 6.61 v -1.267 H 0 Z"
             style="fill:#231f20;fill-opacity:1;fill-rule:nonzero;stroke:none"
             id="path112" /></g><g
           id="g114"
           transform="translate(531.7715,195.2627)"><path
             d="m 0,0 c -0.69,0.373 -1.234,0.897 -1.633,1.576 -0.395,0.679 -0.596,1.446 -0.596,2.307 v 8.932 h 1.421 V 3.997 c 0,-1.012 0.287,-1.816 0.854,-2.412 0.573,-0.596 1.335,-0.892 2.298,-0.892 0.948,0 1.71,0.296 2.286,0.892 0.579,0.596 0.865,1.4 0.865,2.412 v 8.818 H 6.899 V 3.883 C 6.899,3.012 6.701,2.241 6.312,1.567 5.919,0.897 5.381,0.373 4.687,0 3.997,-0.369 3.215,-0.556 2.344,-0.556 1.473,-0.556 0.693,-0.369 0,0"
             style="fill:#231f20;fill-opacity:1;fill-rule:nonzero;stroke:none"
             id="path116" /></g><g
           id="g118"
           transform="translate(544.7988,201.7207)"><path
             d="m 0,0 -4.094,6.357 h 1.691 L 0.846,1.152 4.092,6.357 H 5.725 L 1.671,0.058 6.146,-6.899 H 4.455 l -3.649,5.785 -3.63,-5.785 h -1.637 z"
             style="fill:#231f20;fill-opacity:1;fill-rule:nonzero;stroke:none"
             id="path120" /></g><g
           id="g122"
           transform="translate(554.8477,195.2627)"><path
             d="m 0,0 c -0.693,0.373 -1.238,0.897 -1.637,1.576 -0.395,0.679 -0.595,1.446 -0.595,2.307 v 8.932 h 1.423 V 3.997 c 0,-1.012 0.285,-1.816 0.854,-2.412 0.57,-0.596 1.336,-0.892 2.298,-0.892 0.946,0 1.708,0.296 2.287,0.892 0.575,0.596 0.865,1.4 0.865,2.412 v 8.818 H 6.896 V 3.883 C 6.896,3.012 6.698,2.241 6.309,1.567 5.919,0.897 5.377,0.373 4.684,0 3.993,-0.369 3.211,-0.556 2.343,-0.556 1.473,-0.556 0.689,-0.369 0,0"
             style="fill:#231f20;fill-opacity:1;fill-rule:nonzero;stroke:none"
             id="path124" /></g><g
           id="g126"
           transform="translate(566.2187,201.8525)"><path
             d="M 0,0 H 3.401 C 4.261,0 4.925,0.218 5.4,0.642 5.873,1.074 6.111,1.685 6.111,2.481 6.111,3.298 5.877,3.917 5.409,4.335 4.942,4.751 4.271,4.96 3.401,4.96 H 0 Z M 3.189,-1.209 H 0 V -7.031 H -1.401 V 6.226 h 4.92 c 1.24,0 2.22,-0.324 2.93,-0.968 C 7.16,4.61 7.513,3.69 7.513,2.499 7.513,1.55 7.264,0.771 6.765,0.155 6.266,-0.458 5.567,-0.871 4.67,-1.074 L 7.802,-7.031 H 6.186 Z"
             style="fill:#231f20;fill-opacity:1;fill-rule:nonzero;stroke:none"
             id="path128" /></g><g
           id="g130"
           transform="translate(580.2832,200.374)"><path
             d="m 0,0 v -5.553 h -1.4 v 5.574 l -3.96,7.683 h 1.521 L -0.71,1.347 2.441,7.704 h 1.516 z"
             style="fill:#231f20;fill-opacity:1;fill-rule:nonzero;stroke:none"
             id="path132" /></g><g
           id="g134"
           transform="translate(596.5,199.2021)"><path
             d="M 0,0 -2.418,6.917 -4.821,0 Z m 0.407,-1.191 h -5.633 l -1.111,-3.19 h -1.481 l 4.824,13.257 h 1.17 L 2.997,-4.381 H 1.521 Z"
             style="fill:#231f20;fill-opacity:1;fill-rule:nonzero;stroke:none"
             id="path136" /></g><g
           id="g138"
           transform="translate(601.5713,195.6836)"><path
             d="m 0,0 c -0.756,0.656 -1.191,1.616 -1.306,2.886 h 1.383 c 0.181,-1.757 1.23,-2.633 3.152,-2.633 1,0 1.756,0.212 2.275,0.636 C 6.025,1.31 6.283,1.926 6.283,2.73 6.283,3.462 6.08,4.012 5.667,4.381 5.258,4.757 4.636,5.012 3.806,5.152 L 2.307,5.401 c -1.075,0.181 -1.903,0.547 -2.479,1.106 -0.575,0.556 -0.865,1.341 -0.865,2.352 0,1.166 0.392,2.078 1.172,2.728 0.782,0.656 1.81,0.979 3.094,0.979 1.178,0 2.14,-0.302 2.891,-0.91 C 6.871,11.049 7.315,10.123 7.455,8.88 H 6.071 C 5.92,10.533 4.966,11.357 3.209,11.357 2.301,11.357 1.593,11.143 1.086,10.716 0.579,10.283 0.327,9.699 0.327,8.957 0.327,8.304 0.521,7.794 0.914,7.43 1.304,7.063 1.897,6.811 2.69,6.671 L 4.229,6.398 C 5.344,6.206 6.194,5.825 6.782,5.246 7.372,4.674 7.667,3.857 7.667,2.806 7.667,1.605 7.264,0.671 6.458,0.012 5.65,-0.646 4.542,-0.977 3.135,-0.977 1.803,-0.977 0.757,-0.65 0,0"
             style="fill:#231f20;fill-opacity:1;fill-rule:nonzero;stroke:none"
             id="path140" /></g><g
           id="g142"
           transform="translate(612.0635,195.6836)"><path
             d="m 0,0 c -0.756,0.656 -1.191,1.616 -1.307,2.886 h 1.384 c 0.181,-1.757 1.23,-2.633 3.152,-2.633 1,0 1.756,0.212 2.275,0.636 C 6.022,1.31 6.283,1.926 6.283,2.73 6.283,3.462 6.077,4.012 5.667,4.381 5.258,4.757 4.636,5.012 3.802,5.152 L 2.304,5.401 c -1.075,0.181 -1.903,0.547 -2.476,1.106 -0.579,0.556 -0.865,1.341 -0.865,2.352 0,1.166 0.39,2.078 1.172,2.728 0.782,0.656 1.81,0.979 3.094,0.979 1.178,0 2.14,-0.302 2.891,-0.91 C 6.868,11.049 7.314,10.123 7.455,8.88 H 6.071 C 5.92,10.533 4.963,11.357 3.206,11.357 2.301,11.357 1.591,11.143 1.086,10.716 0.579,10.283 0.327,9.699 0.327,8.957 0.327,8.304 0.521,7.794 0.914,7.43 1.304,7.063 1.896,6.811 2.688,6.671 L 4.229,6.398 C 5.341,6.206 6.191,5.825 6.782,5.246 7.369,4.674 7.667,3.857 7.667,2.806 7.667,1.605 7.264,0.671 6.455,0.012 5.65,-0.646 4.538,-0.977 3.132,-0.977 1.8,-0.977 0.757,-0.65 0,0"
             style="fill:#231f20;fill-opacity:1;fill-rule:nonzero;stroke:none"
             id="path144" /></g><g
           id="g146"
           transform="translate(623.5527,206.8125)"><path
             d="m 0,0 v -4.613 h 5.687 v -1.27 H 0 v -4.842 h 6.65 v -1.266 H -1.404 V 1.266 H 6.65 V 0 Z"
             style="fill:#231f20;fill-opacity:1;fill-rule:nonzero;stroke:none"
             id="path148" /></g><g
           id="g150"
           transform="translate(640.2305,206.8125)"><path
             d="M 0,0 H -3.784 V -11.991 H -5.168 V 0 H -8.953 V 1.266 H 0 Z"
             style="fill:#231f20;fill-opacity:1;fill-rule:nonzero;stroke:none"
             id="path152" /></g><g
           id="g154"
           transform="translate(642.3223,195.6836)"><path
             d="m 0,0 c -0.754,0.656 -1.191,1.616 -1.307,2.886 h 1.384 c 0.181,-1.757 1.23,-2.633 3.152,-2.633 1,0 1.759,0.212 2.275,0.636 C 6.025,1.31 6.283,1.926 6.283,2.73 6.283,3.462 6.08,4.012 5.67,4.381 5.258,4.757 4.639,5.012 3.805,5.152 L 2.307,5.401 c -1.075,0.181 -1.903,0.547 -2.479,1.106 -0.576,0.556 -0.865,1.341 -0.865,2.352 0,1.166 0.392,2.078 1.175,2.728 0.779,0.656 1.81,0.979 3.091,0.979 1.177,0 2.143,-0.302 2.894,-0.91 C 6.87,11.049 7.314,10.123 7.458,8.88 H 6.071 C 5.919,10.533 4.965,11.357 3.209,11.357 2.301,11.357 1.593,11.143 1.086,10.716 0.579,10.283 0.329,9.699 0.329,8.957 0.329,8.304 0.524,7.794 0.914,7.43 1.304,7.063 1.896,6.811 2.69,6.671 L 4.229,6.398 C 5.344,6.206 6.194,5.825 6.784,5.246 7.372,4.674 7.667,3.857 7.667,2.806 7.667,1.605 7.263,0.671 6.458,0.012 5.65,-0.646 4.541,-0.977 3.135,-0.977 1.802,-0.977 0.76,-0.65 0,0"
             style="fill:#231f20;fill-opacity:1;fill-rule:nonzero;stroke:none"
             id="path156" /></g></g></g></g></svg>
